<?xml version="1.0" standalone="no"?>
<!DOCTYPE svg PUBLIC "-//W3C//DTD SVG 20010904//EN"
 "http://www.w3.org/TR/2001/REC-SVG-20010904/DTD/svg10.dtd">
<svg version="1.0" xmlns="http://www.w3.org/2000/svg"
 width="2340.000000pt" height="1560.000000pt" viewBox="0 0 2340.000000 1560.000000"
 preserveAspectRatio="xMidYMid meet">

<g transform="translate(0.000000,1560.000000) scale(0.100000,-0.100000)"
fill="#000000" stroke="none">
<path d="M11455 10671 c-3 -5 -2 -12 3 -15 5 -3 9 1 9 9 0 17 -3 19 -12 6z"/>
<path d="M11192 10408 c-133 -134 -242 -246 -242 -250 0 -5 -3 -8 -7 -8 -16
-1 -72 -64 -66 -74 3 -6 2 -8 -2 -3 -5 4 -22 -6 -39 -22 -27 -25 -247 -156
-640 -380 -153 -86 -234 -178 -282 -321 -18 -52 -19 -98 -19 -800 l0 -745 23
-67 c26 -75 103 -190 154 -229 18 -14 92 -60 163 -101 72 -41 308 -178 525
-303 555 -321 559 -324 620 -342 79 -25 237 -23 310 3 30 11 244 130 475 264
564 326 587 340 685 395 47 27 104 63 127 82 52 41 117 129 107 144 -4 7 -3 9
3 6 6 -4 23 21 39 56 27 59 29 70 31 221 2 88 6 162 10 165 3 3 3 -1 -2 -9 -4
-8 6 -2 23 14 17 16 29 34 25 39 -3 6 -2 7 4 4 5 -3 56 42 114 100 57 58 98
102 90 98 -11 -6 -13 -4 -8 8 3 9 2 19 -3 22 -5 3 -6 13 -3 23 4 13 2 13 -10
-3 -8 -11 -12 -24 -9 -30 12 -18 8 -40 -12 -62 -15 -18 -23 -20 -39 -12 -16 9
-17 13 -6 20 9 5 4 7 -15 5 -22 -2 -30 -9 -31 -24 -1 -12 -12 -31 -26 -42 -17
-16 -19 -20 -6 -16 14 5 16 2 8 -13 -6 -10 -17 -24 -26 -31 -13 -11 -13 -15
-3 -22 10 -7 10 -8 -2 -7 -8 1 -27 -3 -42 -11 -22 -10 -25 -16 -17 -31 7 -15
6 -17 -5 -13 -8 3 -13 14 -11 25 4 22 -5 24 -25 7 -12 -11 -12 -10 -1 5 8 10
21 15 30 12 10 -3 25 1 34 7 22 17 12 56 -16 60 -12 2 -23 11 -25 22 -3 16 0
18 22 12 19 -5 26 -3 26 9 0 17 -43 30 -62 19 -7 -4 -1 6 13 22 15 16 24 35
22 42 -3 6 1 10 9 9 7 -2 10 -2 5 0 -13 8 3 22 18 16 8 -3 16 0 16 6 1 6 2 17
3 24 0 6 6 12 11 12 18 1 50 23 43 31 -5 4 -3 14 4 23 6 9 -38 -33 -100 -93
-61 -60 -108 -114 -105 -119 3 -6 2 -7 -4 -4 -13 8 -56 -37 -46 -48 5 -4 3 -5
-3 -2 -13 7 -157 -135 -160 -159 -1 -8 -6 -19 -10 -22 -4 -4 -4 2 0 13 4 13
-10 4 -38 -24 l-45 -44 17 -31 c12 -23 17 -55 17 -121 0 -78 -4 -97 -27 -140
-106 -200 -355 -238 -513 -78 -105 107 -116 281 -26 403 61 83 135 121 253
129 47 3 84 3 82 0 -2 -4 8 -10 23 -14 23 -5 36 3 104 71 43 43 75 82 72 87
-3 6 -2 7 4 4 5 -3 101 87 214 200 112 113 192 197 177 187 -15 -11 -28 -22
-28 -26 0 -5 -5 -8 -11 -8 -5 0 -7 5 -3 12 4 7 3 8 -5 4 -6 -4 -9 -12 -6 -17
10 -15 -66 -77 -91 -74 -13 1 -21 -2 -18 -6 3 -5 -2 -9 -11 -9 -9 0 -14 3 -11
8 2 4 -14 8 -36 9 -23 1 -44 7 -48 14 -5 8 -10 5 -15 -10 -7 -24 -35 -29 -35
-6 0 8 6 15 13 15 7 0 13 10 14 21 2 21 1 21 -13 3 -12 -17 -13 -17 -8 -1 9
26 62 79 68 68 4 -5 0 -11 -6 -14 -7 -2 -1 -4 13 -3 26 1 27 2 12 30 -13 26
-13 28 0 23 11 -4 14 -1 10 9 -3 7 0 14 6 14 5 0 16 10 22 23 6 12 -57 -45
-140 -128 -83 -82 -163 -155 -178 -161 -17 -7 -38 -8 -56 -3 -17 5 -35 6 -41
2 -6 -3 -8 -2 -3 2 4 5 -1 17 -10 27 -18 20 -35 118 -20 115 5 -1 12 4 15 12
3 9 0 11 -8 6 -9 -5 -11 -4 -6 4 4 6 11 9 15 7 4 -3 128 117 277 267 148 149
242 246 208 214 -33 -32 -64 -54 -69 -50 -4 5 -5 3 -2 -3 8 -14 -66 -87 -78
-77 -4 5 -5 3 -2 -3 8 -14 -17 -37 -28 -26 -5 4 -4 1 0 -7 6 -11 4 -13 -7 -8
-10 3 -15 0 -14 -11 0 -9 -6 -17 -14 -17 -8 0 -15 -7 -15 -15 0 -8 -7 -15 -15
-15 -8 -1 -14 -6 -13 -12 1 -6 -7 -19 -17 -28 -11 -10 -20 -13 -20 -7 0 6 5
14 10 17 17 10 11 24 -9 22 -12 -1 -17 -7 -14 -18 7 -23 -12 -32 -30 -14 -17
17 -37 20 -37 5 0 -5 6 -13 13 -17 16 -10 46 -49 31 -40 -7 4 -15 0 -18 -9 -5
-13 -9 -14 -21 -4 -8 7 -12 16 -9 21 3 5 0 9 -6 9 -8 0 -10 -10 -6 -27 l7 -28
-20 25 c-18 22 -18 25 -3 36 15 11 12 17 -28 54 -25 23 -38 40 -30 38 8 -2 14
3 12 10 -2 13 10 16 21 5 4 -3 1 -13 -6 -21 -10 -13 -9 -15 5 -9 10 3 24 0 32
-8 19 -19 32 -19 16 0 -21 25 -20 68 3 93 11 12 17 22 13 22 -5 0 -3 7 4 15 9
11 17 12 32 4 17 -9 18 -8 9 9 -8 15 -7 23 6 33 9 8 19 13 22 12 3 -2 6 0 6 5
0 14 16 32 25 27 4 -3 13 2 20 10 7 8 9 15 4 15 -5 0 18 28 51 63 33 34 -54
-50 -192 -187 -213 -211 -250 -252 -242 -268 19 -35 27 -112 18 -163 -5 -27
-10 -59 -11 -70 -2 -11 -11 -29 -21 -40 -10 -10 -15 -25 -12 -33 2 -7 1 -11
-4 -8 -10 7 -43 -28 -36 -37 3 -4 2 -5 -1 -3 -3 3 -24 -9 -47 -25 -124 -89
-297 -72 -407 41 -93 96 -117 241 -58 356 20 40 23 55 15 65 -10 11 -9 11 4 1
13 -9 22 -5 52 26 21 21 34 42 30 47 -5 4 -3 5 3 2 7 -4 31 2 55 12 69 31 136
36 207 16 60 -17 63 -17 82 0 11 10 17 22 13 28 -3 5 -2 7 4 4 8 -5 313 295
373 369 14 16 2 6 -25 -23 -37 -40 -53 -51 -61 -43 -9 9 -14 9 -19 1 -3 -6 -3
-11 2 -10 23 4 21 -4 -11 -36 -37 -37 -70 -50 -45 -17 11 14 10 13 -9 -2 -23
-20 -27 -27 -14 -25 23 4 18 -5 -24 -46 -45 -44 -72 -55 -43 -17 8 10 5 8 -6
-3 -23 -23 -47 -23 -38 1 3 8 0 14 -6 14 -7 0 -14 -7 -17 -15 -8 -20 -21 -19
-46 5 -19 17 -19 20 -5 21 9 1 23 2 30 3 6 0 13 15 14 31 1 17 0 24 -3 18 -7
-16 -46 -17 -62 -1 -17 17 -15 28 4 28 8 0 13 4 10 9 -3 4 -17 6 -30 4 -14 -3
-39 2 -55 10 -17 9 -31 11 -31 6 0 -5 6 -9 13 -9 8 -1 7 -4 -3 -9 -19 -10 -90
-2 -90 11 0 5 9 7 20 4 11 -3 29 -9 41 -12 18 -5 19 -3 10 14 -6 11 -8 22 -4
25 3 4 -1 9 -8 12 -10 4 -13 17 -11 45 3 25 0 40 -7 40 -7 0 -9 -9 -5 -24 3
-13 1 -27 -4 -30 -5 -3 -10 5 -11 19 -1 14 -1 37 -2 51 -1 14 7 34 17 45 17
19 17 20 -2 13 -10 -4 -28 -13 -40 -21 -17 -11 -24 -10 -42 3 -12 8 -22 24
-22 34 0 14 -5 18 -17 13 -11 -4 -14 -3 -9 6 4 6 16 9 27 6 12 -4 21 -1 25 9
3 9 11 13 17 9 7 -4 8 0 4 11 -5 13 -1 19 13 23 11 3 20 9 20 14 0 5 12 7 27
5 20 -4 23 -2 15 6 -13 13 -16 32 -4 24 4 -2 8 4 8 14 0 12 -6 17 -18 15 -10
-2 -18 0 -18 4 0 14 38 43 48 37 11 -7 58 41 49 51 -4 3 -1 13 6 22 10 14 10
14 -5 3 -10 -8 -14 -20 -11 -29 5 -12 3 -14 -6 -8 -16 9 -463 -433 -454 -448
3 -6 2 -7 -4 -4 -13 8 -96 -77 -86 -88 5 -4 3 -5 -3 -2 -5 3 -124 -108 -263
-247 l-253 -253 18 -34 c14 -25 19 -55 19 -119 0 -72 -4 -92 -27 -135 -71
-136 -219 -206 -357 -171 -150 38 -240 154 -241 306 0 87 25 153 83 217 72 79
211 120 308 90 l47 -14 216 216 c123 123 213 221 209 226 -4 6 -4 7 1 2 12 -9
47 23 39 36 -3 5 -2 7 4 4 13 -8 86 67 76 78 -5 4 -3 5 3 2 5 -3 129 114 275
260 145 146 257 262 249 257 -8 -4 -21 -16 -29 -27 -11 -15 -15 -16 -23 -6 -8
11 -9 10 -4 -3 5 -18 -9 -26 -16 -10 -1 5 -14 -5 -28 -22 -14 -16 -19 -27 -12
-23 19 12 14 -8 -6 -26 -24 -22 -38 -22 -21 1 7 9 -4 1 -24 -17 -36 -34 -52
-34 -23 -2 12 14 12 18 0 29 -9 8 -14 9 -14 2 0 -6 -6 -8 -12 -4 -10 6 -10 4
0 -7 15 -17 16 -33 0 -23 -8 5 -9 2 -5 -10 4 -10 3 -15 -4 -11 -12 8 -41 -14
-34 -25 3 -4 -2 -10 -10 -14 -8 -3 -15 -11 -15 -17 0 -8 4 -8 15 1 12 10 15
10 15 0 0 -10 3 -10 15 0 9 7 17 11 19 9 2 -2 -11 -15 -28 -28 -17 -14 -28
-21 -24 -17 4 5 -3 17 -15 27 -13 11 -17 18 -9 19 7 0 10 5 6 12 -4 7 -3 8 4
4 7 -4 12 -2 12 3 0 14 -13 14 -28 -1 -9 -9 -15 -9 -24 0 -9 9 -7 13 5 18 9 3
17 13 17 21 0 9 8 22 18 29 15 12 15 15 2 24 -19 13 -33 13 -25 0 3 -5 1 -10
-5 -10 -8 0 -9 7 -5 18 20 50 15 56 -23 21 -47 -43 -52 -51 -45 -64 4 -5 2 -7
-2 -2 -11 10 -46 -23 -38 -36 3 -5 1 -7 -5 -3 -13 8 -44 -22 -36 -35 3 -5 0
-8 -8 -7 -7 2 -12 -3 -11 -9 2 -7 -3 -12 -10 -10 -6 1 -11 -4 -9 -11 1 -8 -1
-11 -6 -8 -5 3 -66 -51 -137 -120 -71 -68 -139 -127 -152 -130 -33 -9 -70 3
-96 29 -12 12 -24 21 -27 20 -3 -1 -4 13 -3 30 1 18 2 39 2 48 1 9 48 63 106
120 58 57 105 108 105 113 0 5 -8 2 -17 -5 -16 -11 -16 -11 -5 1 7 8 20 15 30
15 9 0 16 6 15 12 -2 7 0 12 5 11 9 -3 52 34 52 45 0 5 -6 4 -14 -2 -9 -8 -16
-8 -20 -2 -4 5 -2 12 4 16 6 4 7 12 3 18 -3 7 3 3 15 -7 l22 -19 120 121 c66
66 120 123 120 126 0 6 -23 2 -39 -8 -11 -7 -13 -5 -8 7 9 23 -8 30 -24 11
-10 -12 -10 -20 -1 -34 9 -14 8 -21 -3 -30 -9 -7 -15 -8 -20 0 -3 5 -12 10
-18 10 -7 0 -4 -5 6 -11 38 -22 14 -25 -29 -3 -26 13 -51 21 -56 18 -4 -3 -8
-2 -7 3 4 22 -3 31 -21 26 -15 -4 -20 0 -20 15 0 11 7 22 15 26 8 3 15 13 15
22 0 11 5 14 16 10 12 -4 15 -2 11 9 -4 8 -2 17 3 20 5 3 11 -4 13 -15 4 -17
5 -17 4 2 -2 28 11 50 24 43 5 -4 9 0 9 7 0 19 64 80 75 71 4 -5 5 -3 1 4 -3
6 -1 16 6 20 7 5 60 58 118 118 58 61 -4 2 -137 -129 -133 -132 -239 -244
-236 -249 3 -6 2 -7 -4 -4 -13 8 -166 -147 -156 -158 4 -4 3 -5 -3 -2 -14 8
-117 -96 -107 -108 5 -4 3 -5 -3 -2 -12 7 -57 -35 -49 -46 3 -4 2 -5 -2 -2 -4
3 -69 -56 -144 -131 l-137 -137 16 -36 c9 -22 15 -64 15 -108 0 -88 -32 -161
-97 -221 -74 -68 -118 -86 -216 -86 -73 -1 -92 3 -136 26 -63 33 -118 88 -152
153 -21 41 -26 64 -26 130 -1 68 3 89 27 137 36 72 111 141 180 164 63 21 159
22 208 1 l36 -15 162 162 c89 89 158 166 154 171 -4 4 -3 5 3 2 14 -8 87 66
77 78 -5 4 -3 5 3 2 11 -7 41 19 44 38 1 6 4 12 7 15 4 3 2 -2 -2 -10 -6 -10
-1 -8 13 4 12 10 19 23 15 29 -3 5 -2 7 4 4 5 -3 124 110 264 251 140 141 210
214 156 162 -53 -52 -101 -94 -105 -93 -4 0 -6 -3 -5 -7 1 -4 -4 -13 -11 -19
-11 -9 -18 -8 -29 3 -13 14 -15 12 -13 -17 1 -22 -3 -32 -14 -32 -8 0 -15 -4
-15 -10 0 -20 -16 -34 -30 -28 -8 3 -15 10 -15 15 0 6 8 7 17 4 10 -4 14 -4
10 0 -4 4 -2 13 4 21 8 9 8 13 1 13 -6 0 -14 -5 -17 -10 -4 -6 -10 -8 -15 -5
-10 6 -6 -37 6 -56 4 -8 -7 -1 -25 14 -30 25 -35 26 -50 13 -13 -12 -19 -12
-33 -2 -20 15 -24 57 -5 54 13 -3 13 4 2 41 -5 18 -4 22 5 16 8 -5 11 -4 6 3
-12 20 37 36 61 19 13 -9 13 10 0 31 -10 15 1 34 15 26 6 -4 8 -3 5 3 -7 11
66 86 76 78 4 -3 5 -2 2 2 -3 4 16 28 42 55 26 26 45 48 43 48 -3 0 -114 -109
-248 -242z m62 24 c2 -4 -5 -9 -17 -9 -17 -2 -19 0 -7 7 18 12 18 12 24 2z
m-75 -86 c11 -14 6 -15 -27 -7 -4 1 8 21 12 21 2 0 9 -6 15 -14z m-19 -40 c0
-6 -5 -3 -11 7 -10 18 -12 18 -32 0 l-22 -18 19 22 c15 18 22 20 33 12 7 -6
13 -17 13 -23z m-63 -23 c-4 -3 1 -16 10 -27 18 -21 18 -21 -3 -3 -11 9 -24
14 -28 10 -4 -4 -4 0 0 10 3 9 11 17 17 17 6 0 7 -3 4 -7z m-22 -41 c-3 -3
-11 0 -18 7 -9 10 -8 11 6 5 10 -3 15 -9 12 -12z m202 -5 c7 0 -11 -24 -40
-54 -51 -52 -75 -71 -45 -35 8 9 14 29 13 44 -1 22 2 25 17 17 14 -7 16 -6 12
6 -4 8 -1 15 7 15 7 0 9 3 6 6 -4 4 -13 1 -22 -6 -8 -7 -15 -9 -15 -6 0 4 -9
2 -20 -4 -16 -8 -20 -8 -18 2 3 14 55 28 78 20 8 -2 21 -5 27 -5z m-256 -54
c13 -16 12 -17 -3 -4 -10 7 -18 15 -18 17 0 8 8 3 21 -13z m136 -51 c-30 -31
-36 -52 -9 -31 15 13 16 12 3 -4 -16 -21 -26 -14 -26 18 -1 13 4 21 10 18 7
-2 18 3 25 12 7 8 15 15 18 15 3 0 -6 -13 -21 -28z m-216 -29 c13 -16 12 -17
-3 -4 -17 13 -22 21 -14 21 2 0 10 -8 17 -17z m684 -53 c-11 -17 5 -32 21 -19
8 7 14 7 14 1 0 -14 -24 -22 -40 -12 -12 7 -8 40 5 40 4 0 3 -4 0 -10z m-191
-16 c8 -20 8 -29 0 -21 -4 3 -15 2 -25 -4 -15 -7 -19 -6 -19 5 0 10 6 13 17 9
12 -5 15 -2 10 10 -3 9 -2 17 2 17 5 0 12 -7 15 -16z m6 -50 c0 -14 -3 -14
-15 -4 -8 7 -15 14 -15 16 0 2 7 4 15 4 8 0 15 -7 15 -16z m-452 -23 c-13 -15
-25 -27 -27 -25 -4 4 39 54 47 54 2 0 -7 -13 -20 -29z m584 1 c10 -10 -8 -28
-31 -34 -9 -2 -15 6 -16 24 -1 21 2 26 18 22 11 -2 24 -7 29 -12z m-212 -2 c0
-5 -2 -10 -4 -10 -3 0 -8 5 -11 10 -3 6 -1 10 4 10 6 0 11 -4 11 -10z m150
-52 c0 -5 6 -6 13 -3 6 4 -6 -10 -28 -32 -22 -21 -38 -42 -37 -48 2 -5 0 -6
-4 -2 -16 16 -11 36 12 52 14 9 22 20 18 26 -3 6 -11 3 -18 -7 -10 -13 -15
-14 -21 -4 -6 9 -4 11 5 5 9 -6 12 -4 8 6 -4 10 3 15 23 15 16 1 29 -3 29 -8z
m224 -129 c-10 -12 -18 -24 -17 -28 1 -3 0 -8 -2 -9 -2 -2 -3 3 -1 11 2 16 25
47 34 47 3 0 -3 -9 -14 -21z m251 2 c-3 -6 -11 -11 -17 -11 -6 0 -6 6 2 15 14
17 26 13 15 -4z m-601 1 c3 -5 -1 -9 -9 -9 -8 0 -12 4 -9 9 3 4 7 8 9 8 2 0 6
-4 9 -8z m-38 -34 c4 -7 3 -10 -1 -5 -5 4 -17 -1 -27 -10 -15 -13 -21 -14 -31
-4 -9 10 -9 11 4 6 9 -3 22 1 29 10 15 18 17 18 26 3z m359 -18 c3 -5 1 -10
-4 -10 -6 0 -11 5 -11 10 0 6 2 10 4 10 3 0 8 -4 11 -10z m178 -46 c-29 -29
-70 -41 -70 -20 0 7 6 13 14 14 7 1 20 3 28 4 8 1 22 10 32 20 9 10 18 16 20
14 2 -2 -8 -16 -24 -32z m-203 11 c0 -12 -19 -12 -23 0 -4 9 -1 12 9 8 7 -3
14 -7 14 -8z m40 -25 c0 -5 -4 -10 -10 -10 -5 0 -10 5 -10 10 0 6 5 10 10 10
6 0 10 -4 10 -10z m470 -15 c-7 -9 -15 -13 -17 -11 -7 7 7 26 19 26 6 0 6 -6
-2 -15z m-953 -10 c0 -8 -4 -12 -9 -9 -5 3 -6 10 -3 15 9 13 12 11 12 -6z
m538 -46 c-4 -5 -1 -9 5 -9 6 0 8 -5 4 -12 -6 -9 -9 -9 -12 0 -2 7 -8 12 -14
12 -6 0 -8 -6 -5 -14 5 -13 -26 -56 -40 -56 -4 0 3 10 14 23 21 23 21 52 0 40
-7 -3 -8 -2 -4 3 5 5 13 10 18 10 5 1 14 2 20 3 5 0 7 6 3 13 -4 7 -3 8 5 4 6
-4 9 -12 6 -17z m365 -18 c0 -3 -10 -15 -22 -28 -30 -33 -47 -29 -17 4 13 15
16 21 7 14 -16 -12 -26 -2 -12 12 7 6 44 5 44 -2z m-438 -20 c-5 -14 -3 -14
11 -2 9 7 17 11 17 8 0 -2 -6 -10 -14 -16 -12 -10 -17 -8 -25 7 -7 14 -7 19 4
19 8 0 11 -7 7 -16z m378 -16 c-7 -8 -9 -15 -6 -15 4 0 -3 -14 -15 -32 -13
-18 -25 -26 -27 -19 -3 9 -9 8 -22 -4 -11 -10 -16 -24 -12 -33 5 -15 4 -15
-12 -3 -17 14 -15 17 20 47 21 18 42 30 47 27 6 -4 8 0 4 9 -3 9 0 21 6 27 17
17 31 13 17 -4z m-394 -31 c-10 -7 -15 -17 -12 -22 6 -11 -28 -45 -49 -48 -9
-1 -11 4 -8 14 5 11 3 13 -6 7 -10 -6 -11 -3 -2 12 7 14 7 24 -2 33 -10 12 -9
12 5 1 10 -7 14 -19 11 -29 -6 -15 -5 -15 10 -3 16 12 17 12 10 -5 -6 -17 -5
-17 10 -5 13 10 14 18 6 32 -5 11 -6 19 -2 18 21 -4 33 2 27 13 -5 7 -3 8 6 3
10 -6 9 -11 -4 -21z m283 -107 c-7 -12 -17 -25 -23 -29 -7 -5 -4 -8 7 -8 9 0
17 4 17 8 0 5 6 16 13 25 11 15 12 14 12 -12 1 -30 -6 -32 -70 -22 -5 0 1 8
13 17 12 8 22 20 22 25 0 6 -17 -2 -37 -17 l-38 -27 40 36 c43 38 62 39 44 4z
m-372 8 c0 -8 -4 -12 -9 -9 -5 3 -6 10 -3 15 9 13 12 11 12 -6z m-252 -45 c3
-6 -1 -7 -9 -4 -18 7 -21 14 -7 14 6 0 13 -4 16 -10z m205 4 c0 -8 -19 -13
-24 -6 -3 5 1 9 9 9 8 0 15 -2 15 -3z m543 -18 c4 -9 -2 -12 -16 -11 -32 4
-34 6 -12 15 11 5 21 9 21 9 1 1 4 -5 7 -13z m-178 -30 c1 -15 -3 -30 -7 -32
-5 -3 -8 -2 -7 3 5 27 -1 35 -16 23 -13 -11 -14 -10 -9 6 7 18 6 18 -17 -1
l-24 -20 15 20 c32 43 65 43 65 1z m-402 -11 c-7 -21 -12 -19 -10 4 0 11 5 18
9 15 4 -3 5 -11 1 -19z m593 -42 c-2 -3 -9 -2 -15 1 -7 5 -6 16 2 34 l12 27 3
-29 c2 -15 1 -30 -2 -33z m-314 -16 c-12 -13 -19 -27 -15 -32 5 -4 2 -5 -5 -1
-11 6 -8 13 9 32 12 13 25 24 27 24 3 0 -4 -10 -16 -23z m29 -29 c-10 -11 -11
-9 -5 7 7 18 6 19 -12 5 -18 -14 -18 -14 -5 3 10 12 17 15 25 7 7 -7 6 -14 -3
-22z m324 22 c3 -5 -1 -10 -9 -10 -9 0 -16 5 -16 10 0 6 4 10 9 10 6 0 13 -4
16 -10z m89 -56 c4 -10 1 -14 -6 -12 -15 5 -23 28 -10 28 5 0 13 -7 16 -16z
m-527 -22 c-10 -10 -14 -22 -10 -27 5 -4 2 -5 -5 -1 -11 6 -10 12 4 27 9 10
19 19 22 19 3 0 -2 -8 -11 -18z m39 -4 c4 -7 4 -10 -1 -6 -4 4 -15 2 -24 -5
-14 -11 -14 -10 -2 6 16 20 18 21 27 5z m-83 -65 c-3 -7 -6 -13 -8 -13 -2 0
-5 6 -8 13 -3 8 1 14 8 14 7 0 11 -6 8 -14z m722 -43 c3 -5 1 -10 -4 -10 -6 0
-11 5 -11 10 0 6 2 10 4 10 3 0 8 -4 11 -10z m-40 -37 c-2 -10 -4 -22 -4 -28
-1 -5 -5 -3 -11 5 -5 9 -5 19 2 27 14 17 17 16 13 -4z m45 13 c0 -2 -7 -6 -15
-10 -8 -3 -15 -1 -15 4 0 6 7 10 15 10 8 0 15 -2 15 -4z m246 -75 c-20 -20
-24 -30 -14 -34 7 -2 10 -8 5 -12 -4 -5 -13 -3 -19 3 -9 9 -5 19 17 42 16 16
31 30 34 30 2 0 -8 -13 -23 -29z m-370 -24 c8 3 14 1 14 -5 0 -14 -33 -8 -36
7 -1 6 0 7 2 2 3 -6 12 -7 20 -4z m290 -81 c0 -19 -4 -32 -9 -29 -5 3 -17 -3
-28 -13 -19 -17 -20 -17 -13 2 7 19 7 18 -17 -1 l-24 -20 19 23 c11 12 25 21
32 18 12 -5 34 12 34 27 0 5 -8 3 -17 -4 -15 -11 -14 -10 1 9 11 12 20 22 21
22 1 0 1 -15 1 -34z m-111 -114 c-16 -15 -23 -19 -16 -9 8 9 10 17 7 17 -4 0
-2 9 5 21 8 16 14 18 22 10 8 -8 4 -18 -18 -39z m201 -21 c-15 -17 -46 -19
-46 -4 0 3 6 3 14 0 8 -3 20 1 26 9 7 8 15 14 18 14 3 0 -3 -9 -12 -19z m-41
-23 c5 4 5 1 1 -6 -6 -10 -11 -10 -22 -1 -8 6 -14 14 -14 16 0 3 6 0 13 -6 8
-6 18 -7 22 -3z m-104 -81 c-10 -9 -11 -8 -5 6 3 10 9 15 12 12 3 -3 0 -11 -7
-18z m339 -27 c-13 -9 -13 -10 0 -11 10 0 11 -2 2 -6 -6 -2 -9 -10 -6 -15 4
-6 2 -8 -4 -5 -5 4 -9 13 -8 20 3 19 17 39 24 32 4 -3 0 -10 -8 -15z m137 -71
c-3 -11 -1 -17 4 -13 17 10 9 -13 -10 -30 -14 -13 -21 -14 -27 -5 -4 7 -3 10
4 5 6 -3 13 -2 16 3 4 5 2 12 -4 16 -7 4 -7 12 0 24 5 10 6 22 2 26 -4 5 -1 5
6 0 8 -4 12 -16 9 -26z m47 2 c-5 -3 -12 -10 -15 -14 -4 -4 -9 -1 -13 8 -3 9
-2 13 4 10 6 -3 10 -1 10 5 0 6 5 8 11 4 6 -3 7 -9 3 -13z m-254 5 c0 -2 -8
-10 -17 -17 -16 -13 -17 -12 -4 4 13 16 21 21 21 13z m13 -30 c4 -10 1 -13 -8
-9 -8 3 -12 9 -9 14 7 12 11 11 17 -5z m124 -41 c-23 -22 -33 -18 -12 5 10 11
20 18 23 16 2 -3 -3 -12 -11 -21z m-192 -4 c3 -5 2 -12 -3 -15 -5 -3 -9 1 -9
9 0 17 3 19 12 6z m200 -27 c-8 -9 -15 -20 -15 -26 0 -6 -3 -8 -7 -5 -9 10 18
58 29 51 4 -3 1 -12 -7 -20z m355 22 c0 -2 -8 -10 -17 -17 -16 -13 -17 -12 -4
4 13 16 21 21 21 13z m-680 -10 c0 -2 -7 -7 -16 -10 -8 -3 -12 -2 -9 4 6 10
25 14 25 6z m250 -39 c0 -2 -10 -12 -22 -23 l-23 -19 19 23 c18 21 26 27 26
19z m40 -11 c0 -2 -7 -7 -16 -10 -8 -3 -12 -2 -9 4 6 10 25 14 25 6z m-59 -59
c-10 -9 -11 -8 -5 6 3 10 9 15 12 12 3 -3 0 -11 -7 -18z m-61 -11 c0 -2 -8
-10 -17 -17 -16 -13 -17 -12 -4 4 13 16 21 21 21 13z m10 -20 c0 -2 -8 -10
-17 -17 -16 -13 -17 -12 -4 4 13 16 21 21 21 13z m544 -27 c-21 -24 -8 -25 20
-1 21 17 21 17 3 -5 -17 -19 -57 -28 -57 -13 0 15 33 50 41 44 6 -4 3 -14 -7
-25z m-211 4 c-4 -11 -3 -14 6 -9 9 6 9 3 -1 -13 -7 -12 -17 -21 -22 -21 -4 0
-3 6 3 13 6 8 8 17 5 20 -3 3 -3 10 1 16 10 17 15 13 8 -6z m197 -46 c0 -2
-14 -16 -32 -33 l-31 -29 23 33 c20 27 40 42 40 29z m-260 -41 c0 -2 -8 -10
-17 -17 -16 -13 -17 -12 -4 4 13 16 21 21 21 13z m-415 -64 c-3 -3 -11 0 -18
7 -9 10 -8 11 6 5 10 -3 15 -9 12 -12z m320 -21 c3 -5 2 -12 -3 -15 -5 -3 -9
1 -9 9 0 17 3 19 12 6z"/>
<path d="M11217 10193 c-4 -3 -7 -11 -7 -17 0 -6 5 -5 12 2 6 6 9 14 7 17 -3
3 -9 2 -12 -2z"/>
<path d="M11541 9963 c-1 -17 16 -25 25 -12 4 7 3 9 -4 5 -5 -3 -13 0 -15 6
-4 9 -6 10 -6 1z"/>
<path d="M11493 9903 c4 -3 -1 -16 -10 -27 -18 -21 -18 -21 4 -2 20 16 23 36
6 36 -4 0 -3 -3 0 -7z"/>
<path d="M12446 8763 c-6 -14 -5 -15 5 -6 7 7 10 15 7 18 -3 3 -9 -2 -12 -12z"/>
<path d="M11380 10381 c0 -6 4 -13 10 -16 6 -3 7 1 4 9 -7 18 -14 21 -14 7z"/>
<path d="M11817 10193 c6 -16 -9 -17 -27 0 -12 10 -12 9 -2 -4 6 -9 8 -19 4
-24 -4 -4 3 -3 14 3 25 13 38 39 19 39 -7 0 -11 -6 -8 -14z"/>
<path d="M13249 10173 c-13 -16 -12 -17 4 -4 9 7 17 15 17 17 0 8 -8 3 -21
-13z"/>
<path d="M11766 10135 c-10 -8 -23 -12 -27 -9 -5 3 -6 -3 -2 -12 4 -12 2 -15
-8 -12 -8 3 -13 12 -13 21 2 19 -28 16 -34 -4 -3 -11 -2 -12 6 -1 7 11 11 10
17 -5 5 -10 7 -21 7 -25 -3 -14 7 -8 45 27 39 36 43 46 9 20z"/>
<path d="M12300 10100 c-6 -11 -8 -20 -6 -20 3 0 10 9 16 20 6 11 8 20 6 20
-3 0 -10 -9 -16 -20z"/>
<path d="M12609 10103 c-13 -16 -12 -17 4 -4 9 7 17 15 17 17 0 8 -8 3 -21
-13z"/>
<path d="M11693 10065 c0 -8 4 -12 9 -9 5 3 6 10 3 15 -9 13 -12 11 -12 -6z"/>
<path d="M12259 10053 c-13 -16 -12 -17 4 -4 9 7 17 15 17 17 0 8 -8 3 -21
-13z"/>
<path d="M12529 10023 c-13 -16 -12 -17 4 -4 9 7 17 15 17 17 0 8 -8 3 -21
-13z"/>
<path d="M13089 10013 c-13 -16 -12 -17 4 -4 9 7 17 15 17 17 0 8 -8 3 -21
-13z"/>
<path d="M12179 9973 c-13 -16 -12 -17 4 -4 9 7 17 15 17 17 0 8 -8 3 -21 -13z"/>
<path d="M12134 9966 c10 -8 15 -20 10 -27 -4 -8 -3 -10 4 -5 18 11 14 24 -10
36 -22 10 -22 10 -4 -4z"/>
<path d="M12449 9943 c-13 -16 -12 -17 4 -4 9 7 17 15 17 17 0 8 -8 3 -21 -13z"/>
<path d="M12036 9894 c-23 -23 -20 -30 4 -9 11 10 20 20 20 22 0 7 -9 2 -24
-13z"/>
<path d="M12105 9900 c-4 -6 -11 -7 -17 -4 -7 4 -8 2 -4 -5 6 -9 11 -9 22 0
14 11 18 19 10 19 -3 0 -8 -5 -11 -10z"/>
<path d="M11807 9872 c-19 -20 -23 -29 -13 -29 8 0 14 5 13 11 -1 5 4 10 12
11 8 0 15 8 17 18 3 22 3 22 -29 -11z"/>
<path d="M12056 9882 c-3 -5 1 -9 9 -9 8 0 12 4 9 9 -3 4 -7 8 -9 8 -2 0 -6
-4 -9 -8z"/>
<path d="M12369 9863 c-13 -16 -12 -17 4 -4 9 7 17 15 17 17 0 8 -8 3 -21 -13z"/>
<path d="M12000 9866 c0 -2 8 -10 18 -17 15 -13 16 -12 3 4 -13 16 -21 21 -21
13z"/>
<path d="M12929 9853 c-13 -16 -12 -17 4 -4 9 7 17 15 17 17 0 8 -8 3 -21 -13z"/>
<path d="M12336 9827 c-16 -12 -16 -13 2 -13 10 0 19 6 19 13 0 7 -1 13 -2 13
-1 0 -9 -6 -19 -13z"/>
<path d="M11930 9818 c14 -16 13 -31 -2 -22 -7 5 -8 3 -4 -5 6 -9 13 -8 27 5
16 14 18 34 3 34 -3 0 -2 -4 1 -10 3 -5 2 -10 -2 -10 -5 0 -14 5 -21 10 -9 7
-9 7 -2 -2z"/>
<path d="M12289 9783 c-13 -16 -12 -17 4 -4 9 7 17 15 17 17 0 8 -8 3 -21 -13z"/>
<path d="M12247 9743 c-12 -12 -7 -22 16 -33 21 -10 21 -10 3 4 -10 8 -15 19
-11 25 7 12 2 15 -8 4z"/>
<path d="M12769 9693 c-13 -16 -12 -17 4 -4 9 7 17 15 17 17 0 8 -8 3 -21 -13z"/>
<path d="M12735 9661 c-3 -5 -2 -12 3 -15 5 -3 9 1 9 9 0 17 -3 19 -12 6z"/>
<path d="M12197 9635 c-15 -14 -24 -25 -18 -25 5 0 13 5 16 10 9 15 27 12 19
-2 -4 -7 -3 -10 1 -5 7 5 16 49 11 47 -1 0 -14 -12 -29 -25z"/>
<path d="M12689 9613 c-13 -16 -12 -17 4 -4 9 7 17 15 17 17 0 8 -8 3 -21 -13z"/>
<path d="M12655 9581 c-3 -5 -2 -12 3 -15 5 -3 9 1 9 9 0 17 -3 19 -12 6z"/>
<path d="M12329 9553 c-13 -16 -12 -17 4 -4 9 7 17 15 17 17 0 8 -8 3 -21 -13z"/>
<path d="M13220 9560 c-9 -6 -10 -10 -3 -10 6 0 15 5 18 10 8 12 4 12 -15 0z"/>
<path d="M12614 9538 l-19 -23 23 19 c21 18 27 26 19 26 -2 0 -12 -10 -23 -22z"/>
<path d="M12273 9506 c1 -5 -3 -10 -10 -11 -17 0 -25 -12 -8 -12 8 0 22 8 30
17 13 14 13 17 1 17 -8 0 -14 -5 -13 -11z"/>
<path d="M12575 9501 c-3 -5 -2 -12 3 -15 5 -3 9 1 9 9 0 17 -3 19 -12 6z"/>
<path d="M12521 9446 c-19 -19 -28 -36 -23 -40 6 -3 13 -2 17 4 3 5 3 10 -1
10 -4 0 5 14 21 30 16 17 27 30 24 30 -3 0 -20 -15 -38 -34z"/>
<path d="M12055 9460 c-3 -5 -2 -17 3 -26 8 -14 10 -14 15 5 5 22 -7 38 -18
21z"/>
<path d="M12080 9430 c0 -13 11 -13 30 0 12 8 11 10 -7 10 -13 0 -23 -4 -23
-10z"/>
<path d="M12195 9429 c6 -9 -20 -30 -28 -24 -4 3 -5 2 -2 -2 3 -3 -3 -12 -13
-19 -9 -7 -14 -16 -9 -20 4 -4 8 -5 10 -3 1 2 17 20 35 40 22 24 28 36 18 36
-8 0 -13 -4 -11 -8z"/>
<path d="M12386 9311 c-83 -83 -87 -90 -68 -100 28 -15 31 -14 27 9 -2 11 3
24 13 30 11 6 12 10 4 10 -7 0 -10 5 -7 10 5 8 11 8 20 0 16 -13 11 -50 -7
-61 -9 -5 -6 -8 7 -7 16 2 20 9 19 27 0 15 -2 28 -3 31 -14 29 -1 55 14 30 3
-5 12 -10 18 -10 7 0 4 5 -6 11 -17 10 -16 13 13 30 17 11 36 16 42 13 7 -4 8
-2 4 5 -5 7 -16 9 -29 5 -19 -6 -20 -5 -8 9 7 9 18 14 24 10 6 -3 7 -1 3 5 -3
6 2 15 11 21 10 6 13 11 8 11 -6 0 -50 -40 -99 -89z"/>
<path d="M10415 9357 c-30 -30 -35 -42 -35 -80 0 -51 25 -90 67 -105 52 -17
108 0 133 41 48 78 7 164 -83 174 -43 5 -49 3 -82 -30z"/>
<path d="M12441 9298 c-1 -20 14 -24 25 -6 4 6 3 8 -4 4 -5 -3 -13 0 -15 6 -3
8 -6 6 -6 -4z"/>
<path d="M13134 9208 l-29 -33 33 29 c30 28 37 36 29 36 -2 0 -16 -15 -33 -32z"/>
<path d="M12370 9126 c0 -2 9 -6 20 -9 11 -3 18 -1 14 4 -5 9 -34 13 -34 5z"/>
<path d="M12686 8987 c3 -10 9 -15 12 -12 3 3 0 11 -7 18 -10 9 -11 8 -5 -6z"/>
<path d="M13171 8946 c-9 -11 -9 -16 1 -22 7 -4 10 -4 6 1 -4 4 -3 14 3 22 6
7 9 13 6 13 -2 0 -10 -6 -16 -14z"/>
<path d="M13150 8911 c0 -5 7 -12 16 -15 14 -5 15 -4 4 9 -14 17 -20 19 -20 6z"/>
<path d="M13109 8883 l-24 -28 28 24 c15 14 27 26 27 28 0 8 -8 1 -31 -24z"/>
<path d="M13361 8884 c0 -11 3 -14 6 -6 3 7 2 16 -1 19 -3 4 -6 -2 -5 -13z"/>
<path d="M13344 8845 c-4 -8 -11 -12 -18 -8 -6 3 -8 2 -3 -2 9 -11 -31 -55
-50 -55 -8 0 -12 -4 -9 -9 6 -8 -35 -49 -70 -69 -15 -9 -16 -11 -3 -12 14 0
169 150 169 164 0 12 -11 6 -16 -9z"/>
<path d="M13070 8836 c0 -2 8 -10 18 -17 15 -13 16 -12 3 4 -13 16 -21 21 -21
13z"/>
<path d="M13029 8804 l-24 -27 28 18 c15 9 27 21 27 26 0 14 -5 11 -31 -17z"/>
<path d="M12665 8791 c-3 -5 -1 -12 5 -16 5 -3 10 1 10 9 0 18 -6 21 -15 7z"/>
<path d="M13004 8754 c1 -9 11 -21 22 -26 17 -8 17 -8 3 4 -9 7 -14 19 -12 26
3 6 0 12 -5 12 -6 0 -9 -7 -8 -16z"/>
<path d="M12058 8704 c-36 -19 -48 -43 -48 -99 0 -64 39 -105 100 -105 46 0
84 16 75 31 -4 5 -1 8 6 7 15 -4 39 39 39 69 0 30 -10 54 -21 47 -5 -3 -6 2
-3 10 8 20 -51 56 -91 56 -16 -1 -42 -7 -57 -16z m129 -39 c0 -8 -4 -12 -9 -9
-5 3 -6 10 -3 15 9 13 12 11 12 -6z"/>
<path d="M13129 8703 c-13 -16 -12 -17 4 -4 9 7 17 15 17 17 0 8 -8 3 -21 -13z"/>
<path d="M13049 8623 c-13 -16 -12 -17 4 -4 9 7 17 15 17 17 0 8 -8 3 -21 -13z"/>
<path d="M13060 8598 c-10 -21 -10 -21 3 -6 8 10 18 14 22 10 5 -4 5 -1 1 6
-10 17 -14 15 -26 -10z"/>
<path d="M10783 8555 c-33 -33 -35 -39 -30 -82 7 -65 49 -103 113 -103 37 0
51 5 75 29 28 28 31 37 31 81 0 45 -3 53 -33 81 -25 23 -40 29 -76 29 -38 0
-50 -5 -80 -35z"/>
<path d="M13306 8491 c-2 -3 15 -6 39 -6 24 0 41 3 39 7 -5 8 -73 8 -78 -1z"/>
<path d="M13370 8445 c0 -5 5 -17 10 -25 5 -8 10 -10 10 -5 0 6 -5 17 -10 25
-5 8 -10 11 -10 5z"/>
<path d="M13426 8377 c3 -10 9 -15 12 -12 3 3 0 11 -7 18 -10 9 -11 8 -5 -6z"/>
<path d="M13365 8350 c2 -27 10 -33 12 -10 1 11 -2 22 -6 24 -4 3 -7 -4 -6
-14z"/>
<path d="M13216 8252 c-12 -24 -13 -33 -3 -47 12 -15 15 -15 26 -2 14 17 -1
32 -21 22 -7 -4 -2 2 12 14 19 15 22 23 13 32 -9 9 -15 4 -27 -19z"/>
<path d="M12417 7894 c-72 -71 -22 -194 78 -194 62 0 104 46 105 113 0 41 -5
53 -29 78 -25 24 -38 29 -79 29 -40 0 -54 -5 -75 -26z"/>
<path d="M8710 6191 c-16 -30 -12 -76 8 -94 14 -13 38 -17 100 -17 l82 0 0
-314 c0 -273 2 -317 16 -330 18 -18 76 -21 105 -6 18 10 19 25 19 330 l0 320
83 0 c98 0 118 11 120 62 2 68 3 68 -274 68 -235 0 -249 -1 -259 -19z"/>
<path d="M9337 6192 c-15 -17 -17 -58 -17 -379 0 -336 1 -361 18 -376 16 -15
48 -17 233 -17 154 0 218 3 227 12 7 7 12 28 12 48 0 20 -5 41 -12 48 -8 8
-62 12 -175 12 l-163 0 0 110 0 110 93 0 c103 0 117 7 117 55 0 48 -14 55
-117 55 l-94 0 3 108 3 107 159 3 c97 1 165 7 173 13 16 14 17 81 1 97 -9 9
-73 12 -228 12 -197 0 -218 -2 -233 -18z"/>
<path d="M10048 6200 c-49 -15 -103 -51 -126 -84 -35 -51 -44 -132 -40 -346 3
-192 4 -196 32 -246 65 -119 254 -150 389 -64 48 30 77 80 85 146 7 64 -9 84
-67 84 -55 0 -66 -9 -74 -64 -12 -76 -85 -114 -161 -82 -58 24 -66 55 -66 266
0 211 8 242 67 266 73 31 146 -4 159 -75 9 -52 21 -61 75 -61 38 0 51 4 59 19
27 51 -4 151 -61 193 -67 50 -192 72 -271 48z"/>
<path d="M10508 6199 c-17 -9 -18 -38 -18 -384 0 -360 1 -375 19 -385 49 -26
126 1 120 42 -1 7 -1 79 0 161 l1 147 120 0 120 0 0 -163 c0 -146 2 -166 18
-180 21 -19 73 -22 103 -7 18 10 19 25 19 385 0 360 -1 375 -19 385 -28 15
-73 12 -99 -6 -21 -14 -22 -22 -22 -160 l0 -144 -120 0 -120 0 0 143 c0 127
-2 146 -18 160 -21 19 -77 22 -104 6z"/>
<path d="M11162 6194 l-22 -15 0 -363 c0 -339 1 -364 18 -379 22 -20 81 -22
105 -4 15 10 17 40 19 237 l3 225 119 -223 c65 -122 128 -229 139 -237 12 -8
38 -15 59 -15 70 0 68 -11 68 395 0 406 2 395 -69 395 -71 0 -70 1 -73 -248
l-3 -222 -54 102 c-159 305 -185 350 -209 359 -35 13 -75 11 -100 -7z"/>
<path d="M11955 6199 c-50 -12 -96 -43 -123 -83 -36 -53 -44 -122 -40 -339 5
-220 11 -248 65 -298 54 -51 91 -63 188 -63 108 0 169 24 208 82 40 59 47 104
47 313 0 262 -19 322 -115 369 -51 25 -168 35 -230 19z m141 -124 c56 -23 64
-55 64 -267 0 -217 -8 -244 -76 -267 -36 -13 -47 -13 -80 0 -66 25 -74 53 -74
267 0 209 8 243 62 267 42 18 61 18 104 0z"/>
<path d="M12450 6203 c-8 -3 -18 -11 -22 -17 -4 -6 -8 -176 -8 -378 0 -353 1
-368 19 -378 12 -6 100 -10 216 -10 l195 0 11 28 c6 16 7 39 2 57 l-9 30 -147
3 -147 3 0 324 c0 310 -1 325 -19 335 -21 11 -66 12 -91 3z"/>
<path d="M13095 6201 c-73 -19 -123 -60 -150 -123 -12 -30 -15 -82 -15 -270 0
-204 3 -238 19 -273 46 -101 191 -151 324 -111 67 20 106 53 133 110 23 49 24
60 24 276 0 205 -2 229 -21 270 -26 57 -44 77 -93 102 -43 22 -169 33 -221 19z
m168 -151 l27 -30 0 -210 0 -210 -28 -32 c-25 -27 -36 -32 -81 -32 -47 -1 -56
2 -81 31 -37 41 -44 97 -38 296 3 108 8 158 18 174 39 60 134 67 183 13z"/>
<path d="M13702 6198 c-56 -12 -126 -78 -141 -133 -6 -23 -11 -130 -11 -256 0
-245 8 -288 66 -338 63 -56 182 -75 281 -46 67 20 101 48 129 109 21 45 24 66
24 169 0 117 0 118 -26 127 -14 6 -66 10 -115 10 -76 0 -92 -3 -109 -20 -22
-22 -25 -42 -10 -71 9 -15 22 -19 65 -19 l55 0 0 -65 c0 -57 -3 -68 -29 -97
-25 -28 -34 -32 -81 -32 -47 0 -56 4 -81 32 l-29 32 0 206 c0 231 6 254 68
275 68 23 152 -20 152 -78 0 -48 17 -63 68 -63 59 0 72 12 72 67 0 147 -158
234 -348 191z"/>
<path d="M14133 6190 c-18 -11 -33 -25 -33 -32 0 -6 52 -101 115 -209 l115
-198 0 -149 c0 -132 2 -151 18 -165 22 -20 92 -23 110 -5 8 8 12 58 12 158 l0
145 96 165 c119 205 134 234 134 259 0 25 -51 53 -88 49 -29 -3 -43 -25 -149
-226 l-60 -113 -71 138 c-103 197 -107 203 -139 203 -16 0 -43 -9 -60 -20z"/>
<path d="M8979 5101 c8 -5 9 -11 3 -15 -6 -3 -14 -2 -17 4 -8 13 -35 -6 -35
-24 0 -6 5 -3 11 7 6 9 15 15 21 11 6 -4 5 -10 -3 -15 -10 -6 -10 -9 -2 -9 6
0 15 5 18 10 8 14 58 13 73 -2 9 -9 13 -7 18 6 8 21 -11 36 -41 35 -16 -1 -16
-2 5 -9 l25 -8 -27 -1 c-15 -1 -30 4 -33 9 -3 6 -12 10 -18 10 -8 0 -8 -3 2
-9z"/>
<path d="M9338 5103 c7 -3 16 -2 19 1 4 3 -2 6 -13 5 -11 0 -14 -3 -6 -6z"/>
<path d="M9724 5085 c-23 -23 -25 -31 -22 -107 3 -70 5 -83 19 -80 11 1 16 -4
15 -15 0 -12 6 -18 19 -19 15 -1 16 0 3 3 -19 5 -25 23 -7 23 6 0 3 7 -6 17
-13 13 -18 14 -25 3 -4 -7 -8 23 -9 68 -1 44 3 83 7 86 5 3 10 -25 11 -61 1
-37 4 -70 7 -73 3 -3 4 23 3 58 -2 59 -1 65 27 87 32 27 53 33 35 11 -9 -10
-8 -15 4 -20 11 -4 16 -22 17 -63 l2 -58 3 54 c2 30 -1 59 -6 64 -19 19 -12
28 12 17 22 -11 22 -11 -2 9 -28 25 -47 27 -55 5 -3 -8 -11 -12 -17 -8 -8 4
-7 9 2 15 11 7 11 9 1 9 -7 0 -24 -11 -38 -25z m26 -5 c0 -5 -5 -10 -11 -10
-5 0 -7 5 -4 10 3 6 8 10 11 10 2 0 4 -4 4 -10z"/>
<path d="M10138 5092 c-10 -7 -16 -18 -13 -23 4 -5 1 -9 -4 -9 -7 0 -10 -21
-9 -52 1 -46 2 -48 5 -13 2 22 7 47 10 55 3 8 5 18 5 23 -3 11 16 9 20 -3 2
-6 8 -6 18 0 13 8 12 10 -3 10 -10 0 -16 4 -13 9 3 5 19 7 36 5 16 -2 30 0 30
4 0 13 -61 8 -82 -6z"/>
<path d="M10600 5106 c0 -2 7 -9 15 -16 13 -11 14 -10 9 4 -5 14 -24 23 -24
12z"/>
<path d="M10944 5095 c-4 -9 -4 -19 0 -22 3 -4 6 1 6 10 0 10 5 17 11 17 6 0
8 -7 5 -16 -3 -8 -2 -12 4 -9 5 3 14 -3 19 -14 13 -24 14 -34 3 -27 -5 3 -9
-1 -9 -9 0 -11 4 -12 14 -4 9 8 13 8 13 0 0 -22 -2 -26 -11 -23 -11 3 26 -75
46 -98 8 -8 14 -19 14 -25 1 -5 9 -10 19 -10 15 0 17 12 19 90 1 50 -1 84 -3
77 -3 -6 -10 -10 -15 -6 -5 3 -9 1 -9 -5 0 -5 5 -13 10 -16 6 -3 10 -27 9 -53
-1 -38 -2 -42 -9 -22 -7 23 -8 23 -9 3 -1 -12 4 -25 9 -28 6 -3 10 -13 10 -22
0 -13 -5 -12 -25 7 -14 13 -23 30 -20 38 3 8 0 10 -6 6 -7 -4 -10 -1 -7 7 3 8
11 13 17 11 7 -1 10 2 6 8 -5 8 -11 8 -20 0 -9 -8 -14 -6 -18 9 -2 11 -1 23 4
28 9 10 -40 105 -58 111 -7 2 -16 -4 -19 -13z"/>
<path d="M11084 5092 c0 -9 -4 -16 -9 -15 -6 1 -12 -8 -12 -20 -2 -21 -1 -21
9 -3 7 13 12 15 18 6 5 -7 8 -2 8 14 0 15 -4 28 -8 31 -4 3 -7 -3 -6 -13z"/>
<path d="M11461 5097 c-14 -6 -26 -19 -29 -27 -3 -12 -2 -12 9 1 8 9 21 19 29
21 17 6 62 -26 72 -50 5 -14 7 -12 7 6 1 12 6 22 12 22 6 0 9 -7 6 -15 -4 -8
-2 -17 3 -20 11 -7 13 15 4 39 -5 12 -10 14 -19 6 -15 -12 -48 -2 -39 12 4 6
10 5 15 -3 4 -7 11 -10 15 -6 20 20 -51 32 -85 14z"/>
<path d="M11881 5094 c0 -11 3 -14 6 -6 3 7 2 16 -1 19 -3 4 -6 -2 -5 -13z"/>
<path d="M11906 5101 c-3 -5 1 -14 9 -21 8 -7 15 -11 16 -9 6 32 5 39 -6 39
-8 0 -16 -4 -19 -9z"/>
<path d="M12250 5100 c0 -5 7 -7 15 -4 8 4 15 8 15 10 0 2 -7 4 -15 4 -8 0
-15 -4 -15 -10z"/>
<path d="M12318 5103 c17 -2 32 -8 32 -14 0 -5 5 -9 11 -9 5 0 7 5 4 10 -3 6
-1 10 4 10 6 0 11 -5 11 -11 0 -5 5 -7 10 -4 22 14 -4 25 -53 23 -36 -1 -42
-2 -19 -5z"/>
<path d="M12682 5101 c-10 -6 -9 -10 7 -14 12 -3 19 -1 16 3 -3 5 3 11 12 13
15 4 15 5 -2 6 -11 0 -26 -3 -33 -8z"/>
<path d="M12740 5103 c0 -7 -1 -16 -2 -20 -5 -11 32 -12 39 -1 3 7 1 8 -5 4
-6 -3 -15 2 -21 11 -6 10 -11 12 -11 6z"/>
<path d="M13110 5100 c0 -6 4 -9 9 -5 5 3 12 -2 14 -10 4 -12 5 -12 3 1 -1 19
-26 32 -26 14z"/>
<path d="M13258 4990 c2 -106 1 -119 -15 -124 -14 -4 -14 -4 2 -3 19 2 20 11
23 116 1 63 -1 118 -5 122 -4 4 -7 -45 -5 -111z"/>
<path d="M13530 5100 c0 -5 7 -7 15 -4 8 4 15 8 15 10 0 2 -7 4 -15 4 -8 0
-15 -4 -15 -10z"/>
<path d="M13598 5103 c17 -2 32 -8 32 -14 0 -5 5 -9 11 -9 5 0 7 5 4 10 -3 6
-1 10 4 10 6 0 11 -5 11 -11 0 -5 5 -7 10 -4 22 14 -4 25 -53 23 -36 -1 -42
-2 -19 -5z"/>
<path d="M13950 5103 c14 -3 28 -10 32 -17 6 -8 8 -7 8 3 0 7 6 11 15 8 8 -4
17 -2 20 3 4 6 -15 9 -47 9 -29 -1 -42 -4 -28 -6z"/>
<path d="M14331 5050 c0 -33 5 -58 10 -55 8 6 14 -11 22 -65 3 -18 5 -15 6 11
0 19 -6 44 -14 55 -8 10 -15 25 -15 32 0 18 18 14 23 -5 2 -10 4 -3 4 15 0 17
-4 32 -9 32 -5 0 -6 -4 -3 -10 3 -5 1 -10 -4 -10 -20 0 -11 20 12 30 l22 9
-23 0 c-13 1 -20 5 -17 11 3 6 2 10 -4 10 -6 0 -10 -26 -10 -60z"/>
<path d="M14363 5103 c8 -8 117 -9 117 -1 0 4 -27 7 -60 7 -34 -1 -59 -3 -57
-6z"/>
<path d="M10230 5093 c0 -6 7 -14 16 -17 8 -3 13 -9 10 -14 -2 -4 -1 -14 5
-22 7 -12 9 -11 9 6 0 11 -9 29 -20 39 -11 10 -20 13 -20 8z"/>
<path d="M11952 5096 c4 -5 3 -15 -3 -23 -9 -10 -8 -13 4 -13 24 0 29 16 9 31
-9 7 -14 9 -10 5z"/>
<path d="M14044 5086 c-3 -9 -11 -13 -18 -9 -6 3 -6 1 2 -8 6 -7 12 -23 12
-34 0 -23 -36 -63 -46 -52 -4 3 -15 2 -25 -4 -15 -7 -19 -21 -19 -59 0 -28 -4
-50 -9 -50 -4 0 -7 19 -6 43 1 23 -1 51 -6 62 -5 13 -8 -2 -6 -45 2 -53 5 -65
20 -68 14 -3 17 5 17 51 0 37 4 57 13 60 16 6 39 -6 38 -19 -1 -15 11 -46 16
-41 2 3 0 14 -6 25 -9 17 -8 22 8 27 11 3 25 13 33 22 8 10 8 14 1 10 -6 -4
-14 -3 -18 3 -3 5 -2 10 4 10 6 0 6 11 1 30 -7 23 -5 32 7 39 11 6 12 10 4 15
-6 4 -14 0 -17 -8z m6 -100 c0 -2 -9 -6 -20 -9 -11 -3 -18 -1 -14 4 5 9 34 13
34 5z"/>
<path d="M10576 5075 c-16 -12 -17 -15 -4 -15 9 0 18 7 22 15 7 18 6 18 -18 0z"/>
<path d="M12293 5083 c9 -2 23 -2 30 0 6 3 -1 5 -18 5 -16 0 -22 -2 -12 -5z"/>
<path d="M12648 5085 c-8 -9 15 -54 31 -60 11 -4 12 -3 1 10 -10 12 -10 18 1
33 13 15 12 16 -3 3 -16 -12 -22 -9 -19 12 1 8 -3 9 -11 2z"/>
<path d="M13230 5085 c0 -5 5 -17 10 -25 5 -8 10 -10 10 -5 0 6 -5 17 -10 25
-5 8 -10 11 -10 5z"/>
<path d="M13573 5083 c9 -2 23 -2 30 0 6 3 -1 5 -18 5 -16 0 -22 -2 -12 -5z"/>
<path d="M13920 5077 c0 -7 9 -18 19 -24 16 -10 20 -9 24 13 2 13 0 24 -4 24
-5 0 -9 -4 -9 -10 0 -5 -5 -10 -11 -10 -5 0 -7 5 -4 10 3 6 1 10 -4 10 -6 0
-11 -6 -11 -13z"/>
<path d="M14418 5083 c6 -2 18 -2 25 0 6 3 1 5 -13 5 -14 0 -19 -2 -12 -5z"/>
<path d="M10200 5076 c0 -2 7 -7 16 -10 8 -3 12 -2 9 4 -6 10 -25 14 -25 6z"/>
<path d="M11468 5073 c7 -3 16 -2 19 1 4 3 -2 6 -13 5 -11 0 -14 -3 -6 -6z"/>
<path d="M11836 5064 c-9 -23 -7 -154 2 -154 4 0 6 32 4 70 -3 50 -1 70 8 70
8 0 11 -20 8 -65 -1 -36 0 -65 5 -65 13 0 7 124 -7 143 -12 16 -14 16 -20 1z"/>
<path d="M12250 5076 c0 -2 7 -9 15 -16 9 -7 15 -8 15 -2 0 5 -7 12 -15 16 -8
3 -15 4 -15 2z"/>
<path d="M13530 5076 c0 -2 7 -9 15 -16 9 -7 15 -8 15 -2 0 5 -7 12 -15 16 -8
3 -15 4 -15 2z"/>
<path d="M10618 5058 c10 -12 10 -17 1 -20 -7 -2 -10 -9 -8 -16 3 -8 8 -5 16
7 10 16 9 22 -5 33 -15 12 -16 11 -4 -4z"/>
<path d="M14068 5043 c5 -21 7 -23 10 -9 2 10 0 22 -6 28 -6 6 -7 0 -4 -19z"/>
<path d="M9848 5053 c-2 -5 -1 -30 3 -58 l6 -50 1 58 c2 52 -2 69 -10 50z"/>
<path d="M10958 5053 c7 -3 16 -2 19 1 4 3 -2 6 -13 5 -11 0 -14 -3 -6 -6z"/>
<path d="M11978 5000 c-1 -33 0 -60 5 -60 4 0 7 27 7 60 0 77 -7 77 -12 0z"/>
<path d="M12630 5047 c0 -22 46 -74 57 -64 4 5 -3 18 -17 29 -14 11 -25 24
-25 28 0 5 -3 12 -7 16 -5 4 -8 0 -8 -9z"/>
<path d="M8933 5032 c0 -22 17 -43 29 -36 5 3 1 12 -9 19 -20 15 -4 15 31 0
18 -8 18 -9 2 -21 -16 -12 -16 -13 3 -24 12 -6 21 -7 21 -3 0 4 6 -1 13 -12
11 -14 16 -15 22 -5 6 9 4 11 -5 5 -10 -6 -11 -2 -7 17 6 21 1 27 -31 43 -20
10 -39 19 -42 19 -3 1 -10 4 -16 8 -6 4 -11 0 -11 -10z m92 -42 c4 -6 -1 -7
-11 -3 -13 5 -15 3 -9 -7 5 -9 4 -11 -4 -6 -6 4 -9 12 -6 17 8 12 22 12 30 -1z"/>
<path d="M10573 5017 c-2 -30 -2 -31 8 -8 5 14 6 28 1 33 -4 4 -9 -7 -9 -25z"/>
<path d="M11422 4988 c-2 -62 -1 -66 18 -61 16 4 20 14 20 47 0 28 -3 36 -9
27 -5 -8 -7 -26 -4 -40 3 -17 1 -23 -6 -16 -5 6 -12 33 -14 60 -3 45 -4 44 -5
-17z"/>
<path d="M11954 5036 c-3 -8 -4 -29 -2 -48 3 -29 4 -27 8 15 5 48 3 58 -6 33z"/>
<path d="M12253 5034 c0 -16 13 -19 21 -5 3 5 0 11 -7 14 -8 3 -14 -1 -14 -9z"/>
<path d="M13533 5034 c0 -16 13 -19 21 -5 3 5 0 11 -7 14 -8 3 -14 -1 -14 -9z"/>
<path d="M13922 5025 c0 -16 2 -22 5 -12 2 9 2 23 0 30 -3 6 -5 -1 -5 -18z"/>
<path d="M10138 4994 c-2 -25 0 -51 4 -57 4 -7 8 14 8 46 0 68 -7 75 -12 11z"/>
<path d="M10551 5033 c-1 -6 -4 -20 -7 -30 -5 -17 -5 -17 6 0 6 10 9 23 6 30
-3 9 -5 9 -5 0z"/>
<path d="M13231 5023 c-1 -21 -12 -27 -48 -26 -7 1 -13 -3 -13 -8 0 -13 50 -7
61 8 6 7 9 20 6 30 -4 14 -5 13 -6 -4z"/>
<path d="M10635 5020 c-3 -5 -1 -10 4 -10 6 0 11 5 11 10 0 6 -2 10 -4 10 -3
0 -8 -4 -11 -10z"/>
<path d="M12703 4994 c-4 -11 2 -23 18 -35 20 -15 25 -16 27 -4 5 22 21 18 19
-5 -1 -11 -7 -22 -14 -24 -7 -3 -13 -13 -12 -23 0 -16 1 -16 8 1 5 14 10 16
15 8 11 -18 -1 -31 -37 -41 -22 -6 -25 -9 -11 -10 35 -2 58 24 61 67 2 34 -2
44 -24 61 -31 25 -42 26 -50 5z m42 -24 c-8 -13 -32 -2 -32 15 0 10 5 11 19 4
10 -6 16 -14 13 -19z"/>
<path d="M13142 4996 c7 -8 15 -12 17 -11 5 6 -10 25 -20 25 -5 0 -4 -6 3 -14z"/>
<path d="M10620 4991 c0 -6 4 -13 10 -16 6 -3 7 1 4 9 -7 18 -14 21 -14 7z"/>
<path d="M10653 4975 c3 -16 11 -45 17 -63 13 -35 5 -57 -10 -32 -6 9 -10 10
-10 3 0 -17 20 -27 32 -15 7 7 7 21 -2 44 -6 18 -14 44 -16 58 -7 36 -17 40
-11 5z"/>
<path d="M12257 4993 c-4 -3 -2 -13 5 -20 9 -11 9 -17 -3 -24 -10 -6 -11 -9
-1 -9 7 0 15 7 18 15 4 9 20 16 43 16 34 2 34 2 6 7 -26 4 -28 5 -10 12 16 7
13 9 -16 9 -20 1 -39 -2 -42 -6z m30 -9 c-3 -3 -12 -4 -19 -1 -8 3 -5 6 6 6
11 1 17 -2 13 -5z"/>
<path d="M13537 4993 c-4 -3 -2 -13 5 -20 9 -11 9 -17 -3 -24 -10 -6 -11 -9
-1 -9 7 0 15 7 18 15 4 9 20 16 43 16 34 2 34 2 6 7 -26 4 -28 5 -10 12 16 7
13 9 -16 9 -20 1 -39 -2 -42 -6z m30 -9 c-3 -3 -12 -4 -19 -1 -8 3 -5 6 6 6
11 1 17 -2 13 -5z"/>
<path d="M14395 4992 l30 -5 -25 -8 c-24 -8 -23 -8 5 -6 42 3 38 22 -5 23 -32
2 -33 1 -5 -4z"/>
<path d="M10191 4973 c0 -11 3 -13 6 -5 6 14 43 17 43 2 0 -5 -8 -7 -17 -4
-15 5 -16 4 -3 -5 11 -8 18 -7 26 4 6 8 14 12 17 8 4 -3 7 -1 7 5 0 7 -16 12
-40 12 -32 0 -40 -4 -39 -17z"/>
<path d="M11501 4973 c0 -13 2 -14 6 -4 4 10 7 10 13 1 4 -6 15 -13 25 -14 27
-4 30 -66 3 -66 -6 0 -5 7 2 15 8 10 10 19 4 25 -6 6 -14 -1 -21 -20 -8 -21
-8 -28 0 -23 6 4 8 0 4 -10 -5 -14 -3 -15 14 -4 35 22 35 98 0 89 -7 -1 -14 5
-17 13 -8 21 -34 19 -33 -2z"/>
<path d="M11540 4986 c0 -2 9 -6 20 -9 11 -3 20 -1 20 4 0 5 -9 9 -20 9 -11 0
-20 -2 -20 -4z"/>
<path d="M10531 4968 c0 -9 -4 -25 -7 -35 -5 -17 -5 -17 6 0 6 10 9 25 7 35
-4 15 -5 15 -6 0z"/>
<path d="M14330 4953 c1 -34 19 -67 40 -71 9 -2 6 5 -8 19 -16 14 -22 29 -19
45 2 14 0 27 -4 30 -5 3 -9 -7 -9 -23z"/>
<path d="M13233 4925 c0 -27 2 -38 4 -22 2 15 2 37 0 50 -2 12 -4 0 -4 -28z"/>
<path d="M10257 4947 c-3 -8 -1 -20 4 -28 6 -10 9 -7 9 14 0 29 -5 35 -13 14z"/>
<path d="M10112 4928 c2 -13 10 -23 18 -23 15 0 40 -18 40 -30 0 -3 -10 0 -22
6 -21 11 -22 11 -9 -4 20 -25 107 -18 97 8 -3 8 0 15 7 18 6 2 7 6 2 9 -6 3
-19 -4 -30 -15 -18 -18 -18 -19 -2 -14 11 4 16 3 12 -3 -10 -16 -24 -12 -53
15 -15 14 -32 25 -39 25 -7 0 -10 7 -7 15 4 8 1 15 -6 15 -6 0 -10 -10 -8 -22z"/>
<path d="M11950 4934 c0 -9 -9 -27 -20 -41 -11 -14 -20 -20 -20 -12 0 10 -3
10 -12 1 -17 -17 -33 -15 -19 2 16 19 -3 31 -26 16 -15 -9 -14 -10 7 -4 22 6
23 5 12 -9 -16 -19 -6 -25 39 -23 36 1 79 28 79 50 0 6 -9 17 -20 24 -17 10
-20 10 -20 -4z m15 -44 c-20 -22 -35 -26 -35 -10 0 6 5 9 12 8 11 -3 13 2 17
34 1 9 4 9 13 0 9 -9 7 -16 -7 -32z"/>
<path d="M9060 4910 c-7 -16 -17 -27 -22 -24 -5 3 -4 12 3 20 20 25 5 21 -20
-5 -13 -13 -17 -21 -8 -18 8 3 19 1 25 -5 7 -7 15 0 27 22 9 17 14 34 12 36
-2 3 -10 -9 -17 -26z"/>
<path d="M9820 4919 c0 -11 4 -18 10 -14 5 3 7 12 3 20 -7 21 -13 19 -13 -6z"/>
<path d="M9846 4925 c7 -18 -22 -55 -45 -56 -11 0 -12 -2 -3 -6 15 -6 62 34
62 53 0 7 -4 16 -10 19 -6 3 -7 -1 -4 -10z"/>
<path d="M10560 4929 c0 -5 5 -7 10 -4 6 3 10 8 10 11 0 2 -4 4 -10 4 -5 0
-10 -5 -10 -11z"/>
<path d="M10630 4935 c0 -5 5 -17 10 -25 5 -8 10 -10 10 -5 0 6 -5 17 -10 25
-5 8 -10 11 -10 5z"/>
<path d="M10542 4905 c0 -16 2 -22 5 -12 2 9 2 23 0 30 -3 6 -5 -1 -5 -18z"/>
<path d="M12251 4914 c0 -11 3 -14 6 -6 3 7 2 16 -1 19 -3 4 -6 -2 -5 -13z"/>
<path d="M13531 4914 c0 -11 3 -14 6 -6 3 7 2 16 -1 19 -3 4 -6 -2 -5 -13z"/>
<path d="M8925 4910 c-10 -15 16 -43 28 -31 5 5 17 7 26 4 14 -4 14 -3 1 6
-33 25 -49 31 -55 21z m29 -21 c-6 -11 -24 -2 -24 11 0 5 7 7 15 4 8 -4 12
-10 9 -15z"/>
<path d="M10961 4904 c0 -11 3 -14 6 -6 3 7 2 16 -1 19 -3 4 -6 -2 -5 -13z"/>
<path d="M11434 4908 c-10 -16 33 -48 65 -47 l26 1 -25 7 c-14 3 -25 12 -26
19 -2 28 -5 32 -18 32 -8 0 -18 -5 -22 -12z m30 -13 c3 -8 1 -15 -3 -15 -5 0
-11 7 -15 15 -3 8 -1 15 3 15 5 0 11 -7 15 -15z"/>
<path d="M12635 4910 c-3 -5 1 -10 10 -10 9 0 13 5 10 10 -3 6 -8 10 -10 10
-2 0 -7 -4 -10 -10z"/>
<path d="M10510 4901 c0 -5 5 -13 10 -16 6 -3 10 -2 10 4 0 5 -4 13 -10 16 -5
3 -10 2 -10 -4z"/>
<path d="M12660 4891 c-8 -6 -19 -7 -25 -4 -5 3 -4 0 3 -8 10 -11 15 -10 29 4
19 19 16 22 -7 8z"/>
<path d="M14070 4895 c-1 -5 -2 -14 -1 -19 1 -5 -6 -5 -16 -2 -14 6 -16 5 -5
-5 15 -16 37 2 29 23 -3 7 -6 9 -7 3z"/>
<path d="M9450 4879 c0 -7 -20 -10 -59 -7 -33 2 -57 0 -55 -4 3 -4 32 -8 65
-8 46 0 59 3 59 15 0 8 -2 15 -5 15 -3 0 -5 -5 -5 -11z"/>
<path d="M12254 4878 c1 -7 12 -14 24 -16 16 -3 22 2 21 15 0 10 -3 13 -6 6
-6 -16 -29 -17 -36 -3 -3 6 -4 5 -3 -2z"/>
<path d="M12380 4880 c0 -5 -17 -11 -37 -11 -26 -1 -30 -3 -14 -6 29 -6 71 4
71 17 0 6 -4 10 -10 10 -5 0 -10 -4 -10 -10z"/>
<path d="M13534 4878 c1 -7 12 -14 24 -16 16 -3 22 2 21 15 0 10 -3 13 -6 6
-6 -16 -29 -17 -36 -3 -3 6 -4 5 -3 -2z"/>
<path d="M13660 4880 c0 -5 -17 -11 -37 -11 -26 -1 -30 -3 -14 -6 29 -6 71 4
71 17 0 6 -4 10 -10 10 -5 0 -10 -4 -10 -10z"/>
<path d="M14330 4881 c0 -10 19 -25 25 -20 1 2 -3 10 -11 17 -8 7 -14 8 -14 3z"/>
<path d="M14450 4880 c10 -6 0 -10 -35 -13 l-50 -3 58 -2 c45 -2 57 1 57 13 0
9 -9 15 -22 15 -18 0 -20 -2 -8 -10z"/>
<path d="M10508 4868 c5 -5 16 -8 23 -6 8 3 3 7 -10 11 -17 4 -21 3 -13 -5z"/>
<path d="M10940 4868 c0 -4 7 -8 15 -8 8 0 15 4 15 8 0 5 -7 9 -15 9 -8 0 -15
-4 -15 -9z"/>
<path d="M13110 4868 c0 -4 7 -8 15 -8 8 0 15 4 15 8 0 5 -7 9 -15 9 -8 0 -15
-4 -15 -9z"/>
<path d="M8973 4863 c9 -2 23 -2 30 0 6 3 -1 5 -18 5 -16 0 -22 -2 -12 -5z"/>
</g>
</svg>
